<svg width="40" height="40" viewBox="0 0 40 40" fill="none" xmlns="http://www.w3.org/2000/svg">
<path d="M21.6833 4.86664L31.5167 9.2333C34.35 10.4833 34.35 12.55 31.5167 13.8L21.6833 18.1666C20.5667 18.6666 18.7333 18.6666 17.6167 18.1666L7.78333 13.8C4.94999 12.55 4.94999 10.4833 7.78333 9.2333L17.6167 4.86664C18.7333 4.36664 20.5667 4.36664 21.6833 4.86664Z" stroke="white" stroke-width="1.5" stroke-linecap="round" stroke-linejoin="round"/>
<path d="M5 18.3334C5 19.7334 6.05 21.35 7.33333 21.9167L18.65 26.95C19.5167 27.3334 20.5 27.3334 21.35 26.95L32.6667 21.9167C33.95 21.35 35 19.7334 35 18.3334" stroke="#BAC8FF" stroke-width="1.5" stroke-linecap="round" stroke-linejoin="round"/>
<path d="M5 26.6666C5 28.2166 5.91667 29.6166 7.33333 30.25L18.65 35.2833C19.5167 35.6666 20.5 35.6666 21.35 35.2833L32.6667 30.25C34.0833 29.6166 35 28.2166 35 26.6666" stroke="#9775FA" stroke-width="1.5" stroke-linecap="round" stroke-linejoin="round"/>
</svg>
