<svg width="180" height="32" viewBox="0 0 180 32" fill="none" xmlns="http://www.w3.org/2000/svg">
<path d="M18.8114 21.888C18.8114 24.9884 18.0258 27.4489 16.4545 29.2693C14.8833 31.0898 12.5846 32 9.55847 32C6.41596 32 3.2298 31.1467 0 29.44V0H5.01929V12.8C6.35776 11.4916 7.50711 10.624 8.46732 10.1973C9.42753 9.74222 10.4168 9.51467 11.4352 9.51467C13.763 9.51467 15.5671 10.3964 16.8473 12.16C18.1567 13.9236 18.8114 16.3982 18.8114 19.584V21.888ZM10.0822 14.08C9.38388 14.08 8.6419 14.2791 7.85627 14.6773C7.09974 15.0756 6.15408 15.8578 5.01929 17.024V26.7093C5.80491 27.0222 6.5178 27.2498 7.15794 27.392C7.82718 27.5342 8.48186 27.6053 9.12201 27.6053C10.7515 27.6053 11.9153 27.0933 12.6137 26.0693C13.312 25.0453 13.6612 23.6516 13.6612 21.888V19.584C13.6612 17.6782 13.3411 16.2844 12.701 15.4027C12.0899 14.5209 11.217 14.08 10.0822 14.08Z" fill="white"/>
<path d="M37.0803 14.4213C35.7127 14.4213 34.4034 14.6347 33.1522 15.0613C31.9301 15.4596 30.7516 16.1138 29.6169 17.024V31.5733H24.5976V9.94133H29.355V13.2693C30.8389 11.904 32.1629 10.9369 33.3268 10.368C34.4907 9.79911 35.7418 9.51467 37.0803 9.51467V14.4213Z" fill="white"/>
<path d="M54.6574 31.5733V28.7147C53.3189 29.8524 52.0677 30.6916 50.9038 31.232C49.7399 31.744 48.5615 32 47.3685 32C45.3899 32 43.8623 31.3458 42.7857 30.0373C41.7091 28.7004 41.1708 26.8373 41.1708 24.448V9.94133H46.19V23.8507C46.19 26.24 47.0921 27.4347 48.8961 27.4347C49.6235 27.4347 50.4091 27.264 51.253 26.9227C52.1259 26.5813 53.1734 25.9271 54.3955 24.96V9.94133H59.4148V31.5733H54.6574Z" fill="white"/>
<path d="M77.1497 14.08C76.4223 14.08 75.593 14.2507 74.6619 14.592C73.7308 14.9333 72.6251 15.6018 71.3448 16.5973V31.5733H66.3255V9.94133H71.0829V12.8427C72.4505 11.6764 73.7453 10.8373 74.9674 10.3253C76.1895 9.78489 77.4261 9.51467 78.6773 9.51467C80.8014 9.51467 82.4163 10.1831 83.522 11.52C84.6277 12.8284 85.1805 14.6773 85.1805 17.0667V31.5733H80.1613V17.664C80.1613 15.2747 79.1574 14.08 77.1497 14.08Z" fill="white"/>
<rect x="95.1079" y="10.1282" width="82.392" height="18.4615" rx="9.23075" stroke="url(#paint0_linear_165_5602)" stroke-width="5"/>
<defs>
<linearGradient id="paint0_linear_165_5602" x1="92.6079" y1="19.3589" x2="180" y2="19.3589" gradientUnits="userSpaceOnUse">
<stop stop-color="#9B01E3"/>
<stop offset="0.48" stop-color="#7918F2"/>
<stop offset="1" stop-color="#4801FF"/>
</linearGradient>
</defs>
</svg>
