<svg width="40" height="40" viewBox="0 0 40 40" fill="none" xmlns="http://www.w3.org/2000/svg">
<g clip-path="url(#clip0_167_2099)">
<path d="M13.3333 26.6666H9.04992C5.23325 26.6666 3.33325 24.7666 3.33325 20.95V9.04998C3.33325 5.23331 5.23325 3.33331 9.04992 3.33331H16.6666C20.4833 3.33331 22.3833 5.23331 22.3833 9.04998" stroke="#BAC8FF" stroke-width="1.5" stroke-linecap="round" stroke-linejoin="round"/>
<path d="M30.95 36.6666H23.3334C19.5167 36.6666 17.6167 34.7666 17.6167 30.95V19.05C17.6167 15.2333 19.5167 13.3333 23.3334 13.3333H30.95C34.7667 13.3333 36.6667 15.2333 36.6667 19.05V30.95C36.6667 34.7666 34.7667 36.6666 30.95 36.6666Z" stroke="white" stroke-width="1.5" stroke-linecap="round" stroke-linejoin="round"/>
<path d="M24.7834 25H30.2168" stroke="#9775FA" stroke-width="1.5" stroke-linecap="round" stroke-linejoin="round"/>
<path d="M27.5 27.7167V22.2833" stroke="#9775FA" stroke-width="1.5" stroke-linecap="round" stroke-linejoin="round"/>
</g>
<defs>
<clipPath id="clip0_167_2099">
<rect width="40" height="40" fill="white"/>
</clipPath>
</defs>
</svg>
